<svg xmlns="http://www.w3.org/2000/svg" viewBox="0 0 96 96" role="img" aria-labelledby="title">
  <title id="title">Hospital</title>
  <defs>
    <linearGradient id="blue" x1="18" x2="70" y1="14" y2="76" gradientUnits="userSpaceOnUse">
      <stop stop-color="#2b93dc"/>
      <stop offset="1" stop-color="#0969ad"/>
    </linearGradient>
    <linearGradient id="green" x1="40" x2="83" y1="61" y2="84" gradientUnits="userSpaceOnUse">
      <stop stop-color="#7ec84a"/>
      <stop offset="1" stop-color="#3d9b38"/>
    </linearGradient>
  </defs>
  <path fill="none" stroke="url(#blue)" stroke-width="7" d="M21 55C18 32 31 16 48 16s30 16 27 39"/>
  <path fill="url(#blue)" d="M30 37h14V25h28v39H30V37Z"/>
  <path fill="#fff" d="M35 42h10v22H35zM50 30h8v8h8v8h-8v8h-8v-8h-8v-8h8v-8ZM60 42h7v22h-7z"/>
  <path fill="url(#green)" d="M47 73c-8-14-21-10-26-19 3 20 22 29 43 27 12-1 21-8 26-25-13 17-27 10-43 17Z"/>
  <path fill="#6dbb43" d="M48 78c-12-10-18-18-10-24 5-4 10-1 10 3 1-4 6-7 11-3 8 6 1 14-11 24Z"/>
</svg>
